<svg width="25" height="24" viewBox="0 0 25 24" fill="none" xmlns="http://www.w3.org/2000/svg">
<path d="M14.5 22V18C14.5 17.4696 14.2893 16.9609 13.9142 16.5858C13.5391 16.2107 13.0304 16 12.5 16C11.9696 16 11.4609 16.2107 11.0858 16.5858C10.7107 16.9609 10.5 17.4696 10.5 18V22" stroke="white" stroke-width="2" stroke-linecap="round" stroke-linejoin="round"/>
<path d="M18.5 10L22.5 12V20C22.5 20.5304 22.2893 21.0391 21.9142 21.4142C21.5391 21.7893 21.0304 22 20.5 22H4.5C3.96957 22 3.46086 21.7893 3.08579 21.4142C2.71071 21.0391 2.5 20.5304 2.5 20V12L6.5 10" stroke="white" stroke-width="2" stroke-linecap="round" stroke-linejoin="round"/>
<path d="M18.5 5V22" stroke="white" stroke-width="2" stroke-linecap="round" stroke-linejoin="round"/>
<path d="M4.5 6L12.5 2L20.5 6" stroke="white" stroke-width="2" stroke-linecap="round" stroke-linejoin="round"/>
<path d="M6.5 5V22" stroke="white" stroke-width="2" stroke-linecap="round" stroke-linejoin="round"/>
<path d="M12.5 11C13.6046 11 14.5 10.1046 14.5 9C14.5 7.89543 13.6046 7 12.5 7C11.3954 7 10.5 7.89543 10.5 9C10.5 10.1046 11.3954 11 12.5 11Z" stroke="white" stroke-width="2" stroke-linecap="round" stroke-linejoin="round"/>
</svg>
